<svg width="25" height="25" viewBox="0 0 25 25" fill="none" xmlns="http://www.w3.org/2000/svg">
<path d="M19.4707 18.2206H5.4707C3.0507 18.2206 1.7207 16.8906 1.7207 14.4706V10.4706C1.7207 8.05058 3.0507 6.72058 5.4707 6.72058H19.4707C21.8907 6.72058 23.2207 8.05058 23.2207 10.4706V14.4706C23.2207 16.8906 21.8907 18.2206 19.4707 18.2206ZM5.4707 8.22058C3.8907 8.22058 3.2207 8.89058 3.2207 10.4706V14.4706C3.2207 16.0506 3.8907 16.7206 5.4707 16.7206H19.4707C21.0507 16.7206 21.7207 16.0506 21.7207 14.4706V10.4706C21.7207 8.89058 21.0507 8.22058 19.4707 8.22058H5.4707Z" fill="#292D32"/>
<path d="M18.4707 13.2206C18.0607 13.2206 17.7207 12.8806 17.7207 12.4706V7.47058C17.7207 7.06058 18.0607 6.72058 18.4707 6.72058C18.8807 6.72058 19.2207 7.06058 19.2207 7.47058V12.4706C19.2207 12.8806 18.8807 13.2206 18.4707 13.2206Z" fill="#292D32"/>
<path d="M6.4707 12.2206C6.0607 12.2206 5.7207 11.8806 5.7207 11.4706V7.47058C5.7207 7.06058 6.0607 6.72058 6.4707 6.72058C6.8807 6.72058 7.2207 7.06058 7.2207 7.47058V11.4706C7.2207 11.8806 6.8807 12.2206 6.4707 12.2206Z" fill="#292D32"/>
<path d="M10.4707 13.2206C10.0507 13.2206 9.7207 12.8806 9.7207 12.4606L9.7707 7.46058C9.7707 7.05058 10.1107 6.72058 10.5207 6.72058C10.5207 6.72058 10.5207 6.72058 10.5307 6.72058C10.9407 6.72058 11.2807 7.06058 11.2707 7.48058L11.2207 12.4806C11.2207 12.8906 10.8807 13.2206 10.4707 13.2206Z" fill="#292D32"/>
<path d="M14.4707 11.2206C14.0607 11.2206 13.7207 10.8806 13.7207 10.4706V7.47058C13.7207 7.06058 14.0607 6.72058 14.4707 6.72058C14.8807 6.72058 15.2207 7.06058 15.2207 7.47058V10.4706C15.2207 10.8806 14.8807 11.2206 14.4707 11.2206Z" fill="#292D32"/>
</svg>
