<svg width="16" height="28" viewBox="0 0 16 28" fill="none" xmlns="http://www.w3.org/2000/svg">
<path d="M3.07177 0.950563C2.49218 0.358643 1.54248 0.348646 0.950563 0.928234C0.358643 1.50782 0.348646 2.45752 0.928234 3.04944L3.07177 0.950563ZM14 14.2553L15.0492 15.3273C15.3335 15.049 15.4957 14.6691 15.4999 14.2713C15.5041 13.8734 15.3501 13.4902 15.0718 13.2059L14 14.2553ZM0.950805 24.928C0.358754 25.5075 0.348543 26.4571 0.927997 27.0492C1.50745 27.6412 2.45714 27.6515 3.04919 27.072L0.950805 24.928ZM0.928234 3.04944L12.9282 15.3048L15.0718 13.2059L3.07177 0.950563L0.928234 3.04944ZM12.9508 13.1833L0.950805 24.928L3.04919 27.072L15.0492 15.3273L12.9508 13.1833Z" fill="#292D32"/>
</svg>
